<?xml version="1.0" encoding="UTF-8"?>
<svg xmlns="http://www.w3.org/2000/svg" viewBox="-41.5 51.25 250 250" width="256" height="256">
  <rect x="-41.5" y="51.25" width="250" height="250" rx="40" fill="#f3ede2"/>
  <path d="M96.39800659179689 275.97672607421873 113.76035644531251 271.695634765625V183.70291748046873Q113.76035644531251 175.09328491210937 110.91635864257813 169.54337951660156Q108.07236083984375 163.99347412109375 102.28491088867187 161.3097491455078Q96.49746093750001 158.62602416992186 87.35765014648439 158.62602416992186Q78.16275024414064 158.62602416992186 69.61239379882814 161.12920349121094Q61.06203735351563 163.6323828125 54.31985473632813 166.89292846679686L53.02694824218751 164.11511108398435Q63.90640258789063 154.37328491210937 71.81449279785157 148.36209899902343Q79.7225830078125 142.3509130859375 85.98203735351564 139.20627502441405Q92.24149169921876 136.06163696289062 98.08476562500002 134.9508184814453Q103.92803955078126 133.83999999999997 110.83622436523439 133.83999999999997Q130.889130859375 133.83999999999997 140.35404174804688 144.7286358642578Q149.81895263671876 155.61727172851562 149.81895263671876 177.998173828125V271.57399780273437L167.48730468750003 275.97672607421873V280.0H96.39800659179689ZM75.75366333007813 280.0H4.723273925781251V275.97672607421873L22.432171630859376 271.57399780273437V103.07658081054686Q20.612171630859375 101.871669921875 17.34244445800781 99.752939453125Q14.072717285156251 97.634208984375 9.592717285156251 94.73247741699217Q5.112717285156251 91.83074584960934 -0.34728271484375 88.21601318359373V85.0878283691406L56.9982177734375 71.83454345703123H58.49076782226563V142.73300781249998V271.695634765625L75.75366333007813 275.97672607421873Z" fill="#16130f"/>
  <circle cx="131.5" cy="93.5" r="21" fill="#8d3a2c"/>
</svg>
