<?xml version="1.0" encoding="UTF-8"?>
<svg xmlns="http://www.w3.org/2000/svg" viewBox="-25 50 255 255" width="256" height="256">
  <rect x="-25" y="50" width="255" height="255" rx="40" fill="#f3ede2"/>
  <path d="M688.5571899414062 28.7376708984375 812.573974609375 59.31689453125V687.8363037109375Q812.573974609375 749.3336791992188 792.2597045898438 788.9758605957031Q771.9454345703125 828.6180419921875 730.6065063476562 847.7875061035156Q689.267578125 866.9569702148438 623.9832153320312 866.9569702148438Q558.3053588867188 866.9569702148438 497.23138427734375 849.0771179199219Q436.15740966796875 831.197265625 387.99896240234375 807.9076538085938L378.763916015625 827.7492065429688Q456.47430419921875 897.3336791992188 512.9606628417969 940.2707214355469Q569.447021484375 983.207763671875 614.1574096679688 1005.6694641113281Q658.8677978515625 1028.1311645507812 700.60546875 1036.0655822753906Q742.3431396484375 1044 791.6873168945312 1044Q934.92236328125 1044 1002.5288696289062 966.2240295410156Q1070.1353759765625 888.4480590820312 1070.1353759765625 728.58447265625V60.18572998046875L1196.337890625 28.7376708984375V0H688.5571899414062ZM541.0975952148438 0H33.7376708984375V28.7376708984375L160.22979736328125 60.18572998046875V1263.7387084960938Q147.22979736328125 1272.34521484375 123.87460327148438 1287.47900390625Q100.5194091796875 1302.61279296875 68.5194091796875 1323.3394470214844Q36.5194091796875 1344.0661010742188 -2.4805908203125 1369.8856201171875V1392.2297973632812L407.130126953125 1486.8961181640625H417.79119873046875V980.478515625V59.31689453125L541.0975952148438 28.7376708984375Z" transform="matrix(0.14,0,0,-0.14,60,280)" fill="#c9bea7"/>
  <path d="M525.1353759765625 607.3221435546875 613.1836547851562 691.1574096679688 1115.9548950195312 59.76495361328125 1218.8184814453125 28.7376708984375V0H695.6663208007812V28.7376708984375L811.8142700195312 56.02728271484375L429.1353759765625 535.7103881835938H362.51837158203125V589.5299072265625H437.2392578125L895.7859497070312 957.3934936523438L744.1521606445312 991V1024H1150.7418823242188V991L994.763916015625 955.68310546875ZM417.79119873046875 60.18572998046875 541.38720703125 28.7376708984375V0H33.7376708984375V28.7376708984375L160.22979736328125 60.18572998046875V1272.7166748046875Q147.22979736328125 1280.7439575195312 123.87460327148438 1295.0089111328125Q100.5194091796875 1309.2738647460938 68.5194091796875 1328.9868774414062Q36.5194091796875 1348.6998901367188 -2.4805908203125 1373.0713500976562V1395.41552734375L407.130126953125 1486.8961181640625H417.79119873046875V1307.257080078125Z" transform="matrix(0.14,0,0,-0.14,0,280)" fill="#16130f"/>
  <circle cx="189.4" cy="93.5" r="21" fill="#3a4a52"/>
</svg>